<svg width="13.502014" height="13.501953" viewBox="0 0 13.502 13.502" fill="none" xmlns="http://www.w3.org/2000/svg" xmlns:xlink="http://www.w3.org/1999/xlink">
	<desc>
			Created with Pixso.
	</desc>
	<defs/>
	<path id="Union" d="M0 5C0 2.23853 2.23859 0 5 0C7.76141 0 10 2.23853 10 5C10 6.20068 9.57684 7.30249 8.87146 8.16431L13.3536 12.6465C13.5515 12.8445 13.5515 13.1555 13.3536 13.3535C13.1556 13.5515 12.8444 13.5515 12.6464 13.3535L8.16437 8.87146C7.30243 9.57678 6.20062 10 5 10C2.23859 10 0 7.76147 0 5ZM1 5C1 2.79089 2.79083 1 5 1C7.20917 1 9 2.79089 9 5C9 7.20911 7.20917 9 5 9C2.79083 9 1 7.20911 1 5Z" clip-rule="evenodd" fill="#F6E74E" fill-opacity="1.000000" fill-rule="evenodd"/>
</svg>
