<svg width="9.952744" height="9.952759" viewBox="0 0 9.95274 9.95276" fill="none" xmlns="http://www.w3.org/2000/svg" xmlns:xlink="http://www.w3.org/1999/xlink">
	<desc>
			Created with Pixso.
	</desc>
	<defs/>
	<path id="Vector 40" d="M3.11 4.35L4.97 6.22L8.7 1.86" stroke="#84B73D" stroke-opacity="1.000000" stroke-width="1.244094" stroke-linecap="round"/>
	<path id="Ellipse 12" d="M9.95 4.97Q9.95 5.98 9.56 6.91Q9.18 7.8 8.49 8.49Q7.8 9.18 6.91 9.56Q5.98 9.95 4.97 9.95Q3.96 9.95 3.03 9.56Q2.14 9.18 1.45 8.49Q0.76 7.8 0.39 6.91Q0 5.98 0 4.97Q0 3.96 0.39 3.03Q0.76 2.14 1.45 1.45Q2.14 0.76 3.03 0.39Q3.96 0 4.97 0L4.97 1.24Q4.21 1.24 3.52 1.53Q2.85 1.82 2.33 2.33Q1.82 2.85 1.53 3.52Q1.24 4.21 1.24 4.97Q1.24 5.73 1.53 6.42Q1.82 7.09 2.33 7.61Q2.85 8.13 3.52 8.41Q4.21 8.7 4.97 8.7Q5.73 8.7 6.42 8.41Q7.09 8.13 7.61 7.61Q8.13 7.09 8.41 6.42Q8.7 5.73 8.7 4.97L9.95 4.97Z" fill="#84B73D" fill-opacity="1.000000" fill-rule="evenodd"/>
</svg>
